name C:\Users\tom_v\MusculoskeletalSpecialization_revisited\Results\Case_18\motion.mot
datacolumns 32
datarows 7
range 0.23322833 0.26121573
endheader 
time	pelvis_tilt	pelvis_list	pelvis_rotation	pelvis_tx	pelvis_ty	pelvis_tz	hip_flexion_r	hip_adduction_r	hip_rotation_r	knee_angle_r	ankle_angle_r	subtalar_angle_r	mtp_angle_r	hip_flexion_l	hip_adduction_l	hip_rotation_l	knee_angle_l	ankle_angle_l	subtalar_angle_l	mtp_angle_l	lumbar_extension	lumbar_bending	lumbar_rotation	arm_flex_r	arm_add_r	arm_rot_r	elbow_flex_r	arm_flex_l	arm_add_l	arm_rot_l	elbow_flex_l	
          0.23322833	         -5.34230911	          3.84382003	         -3.72989494	          2.07186028	          0.96776710	         -0.00347580	         13.24094025	        -10.33629911	         -5.96317699	        -62.67620765	         -7.94236480	          8.21976125	          3.68869584	         28.33315417	          3.71942442	         -5.05427077	         -8.57349511	          8.54872253	          0.99726581	         -1.36034601	        -13.32734063	         -6.73511018	         12.87567552	          8.10954614	        -25.83889705	         15.77241961	         62.14614056	         13.98421490	         -9.59713614	        -12.69828763	          1.25688424	
          0.23789289	         -5.80479424	          3.17065574	         -2.11235647	          2.11463736	          0.96513005	         -0.00208562	         15.11872464	         -8.92674869	         -5.64559564	        -63.69128185	         -6.35772530	          8.72863789	          1.26829489	         26.47590388	          3.24373053	         -4.51885386	         -7.25459269	          4.79231488	          1.97040113	          3.00545596	        -12.41637413	         -6.24250274	         10.16085221	         11.32365697	        -20.83610929	         19.17132016	         45.00673916	         17.32567664	        -11.60766254	        -10.81263422	          0.07048071	
          0.24255746	         -6.22338156	          2.35750362	         -0.63987265	          2.15747809	          0.96189861	         -0.00059846	         17.11540310	         -7.45728100	         -5.32362455	        -64.74396608	         -5.19757369	          8.93489189	         -3.58315314	         24.61843706	          2.49920881	         -4.03841686	         -6.15954049	          2.21300486	          2.43298926	          4.20449636	        -11.53456224	         -5.62481173	          7.76518689	         13.87502246	        -15.27144373	         18.74269116	         27.40638913	         20.31242342	        -13.76664024	         -9.53447015	          0.47730838	
          0.24722203	         -6.62367000	          1.41613715	          0.69456393	          2.20035059	          0.95795458	          0.00078803	         19.26923986	         -5.97656975	         -5.03859917	        -65.85072027	         -5.12303785	          8.97295574	         -3.55636432	         22.80644469	          1.53260171	         -3.66329051	         -5.25214825	         -0.29723085	          1.76625003	          5.24221188	        -10.66803411	         -4.87204341	          5.67721287	         15.43692977	        -10.46190245	         13.91295294	         12.16131582	         22.61424773	        -15.90757636	        -11.11264630	          3.57462365	
          0.25188659	         -7.08699748	          0.36695438	          1.92103530	          2.24337056	          0.95323447	          0.00197392	         21.61237121	         -4.52858050	         -4.83656952	        -67.01337106	         -4.84686162	          9.33051731	          0.24284144	         21.11699789	          0.38347813	         -3.51975632	         -4.50053917	         -3.45786020	          0.40295925	          6.42111675	         -9.71702217	         -4.03623224	          3.86599649	         15.24928028	         -7.58232916	          5.54206815	          2.52221694	         23.76097975	        -17.90371682	        -13.05804276	         10.28922725	
          0.25655116	         -7.60537268	         -0.72570942	          3.11407338	          2.28663007	          0.94794937	          0.00288744	         24.06903003	         -3.21572023	         -4.79754853	        -68.18437443	         -3.34456870	         10.06634315	          2.19844416	         19.57772578	         -0.83306955	         -3.87733451	         -4.20813274	         -7.85412962	          0.04597666	          7.85157728	         -8.71072146	         -3.21466708	          2.23100112	         12.49860548	         -6.49297718	         -3.87622870	          0.00171543	         23.47244071	        -19.96658562	        -12.76106926	         21.11393403	
          0.26121573	         -8.21076356	         -1.28420357	          4.63461375	          2.32961877	          0.94292920	          0.00297158	         26.65065955	         -2.86516620	         -5.07581410	        -69.36822498	         -1.74736257	         10.80126919	          3.86711776	         18.56217722	         -1.18884496	         -1.89053817	         -6.49240142	         -2.83753933	          0.63289352	          8.98027827	         -7.79014135	         -3.01974190	          0.30203696	          6.74562883	         -6.06009334	        -10.95112077	          4.97475638	         22.15352340	        -22.80590444	         -9.84266489	         35.36742062	
